<?xml version="1.0" encoding="UTF-8" standalone="no"?>
<!-- Generator: Adobe Illustrator 27.1.1, SVG Export Plug-In . SVG Version: 6.00 Build 0)  -->

<svg
   version="1.1"
   id="logo-ulderup"
   x="0px"
   y="0px"
   viewBox="0 0 29 25.965513"
   style="fill:currentColor"
   xml:space="preserve"
   sodipodi:docname="ulderup.svg"
   width="29"
   height="25.965513"
   inkscape:version="1.3.2 (091e20e, 2023-11-25)"
   xmlns:inkscape="http://www.inkscape.org/namespaces/inkscape"
   xmlns:sodipodi="http://sodipodi.sourceforge.net/DTD/sodipodi-0.dtd"
   xmlns="http://www.w3.org/2000/svg"
   xmlns:svg="http://www.w3.org/2000/svg"><defs
   id="defs8" /><sodipodi:namedview
   id="namedview8"
   pagecolor="#ffffff"
   bordercolor="#666666"
   borderopacity="1.0"
   inkscape:showpageshadow="2"
   inkscape:pageopacity="0.0"
   inkscape:pagecheckerboard="0"
   inkscape:deskcolor="#d1d1d1"
   inkscape:zoom="3.9333333"
   inkscape:cx="33.559322"
   inkscape:cy="30.127119"
   inkscape:window-width="1544"
   inkscape:window-height="652"
   inkscape:window-x="0"
   inkscape:window-y="25"
   inkscape:window-maximized="0"
   inkscape:current-layer="logo-ulderup" />
	
	
	
	
	
	
	
	<g
   id="g8"
   transform="matrix(0.43275855,0,0,0.43275855,-0.21379077,0)"><path
     d="m 28.903442,20.791992 c -0.05249,4.035584 3.627686,4.518677 3.627686,4.518677 0.324585,-4.66571 -3.627686,-4.518677 -3.627686,-4.518677 z"
     id="path1" /><path
     d="m 31.307129,26.805481 c 0.41864,-0.478394 -0.256043,-0.890564 -0.256043,-0.890564 -3.767883,-1.996765 -3.287048,-5.776672 -3.287048,-5.776672 -0.483093,0.676086 -2.093445,3.63977 -0.354553,5.894043 1.739807,2.255065 3.410705,1.329284 3.897644,0.773193 z"
     id="path2" /><path
     d="M 27.538818,27.933166 C 25.453552,27.77887 24.990662,29.863647 24.990662,29.863647 21.555054,40.132874 31.1297,50.441589 31.1297,50.441589 28.310791,39.168091 29.431152,33.261169 29.700684,31.523621 c 0.270263,-1.737122 -0.07697,-3.43573 -2.161866,-3.590455 z"
     id="path3" /><path
     d="m 35.578613,25.310669 c 0,0 3.680298,-0.483093 3.627991,-4.518677 0,0 -3.952454,-0.147033 -3.627991,4.518677 z"
     id="path4" /><path
     d="m 37.058899,25.914917 c 0,0 -0.674683,0.41217 -0.256165,0.890564 0.486878,0.556091 2.157898,1.481873 3.897644,-0.773193 1.738892,-2.254273 0.128662,-5.217957 -0.354431,-5.894043 0,0 0.480896,3.779907 -3.287048,5.776672 z"
     id="path5" /><path
     d="m 43.119324,29.863647 c 0,0 -0.462891,-2.084777 -2.548218,-1.930481 -2.0849,0.154725 -2.432251,1.853333 -2.161865,3.590455 0.26947,1.737548 1.389953,7.64447 -1.429077,18.917968 0,0 9.574829,-10.308715 6.13916,-20.577942 z"
     id="path6" /><path
     d="M 33.985474,0 0.4940186,56.811829 H 29.383057 v 3.1875 h 3.355041 v -5.263916 c -0.731079,-1.356995 -1.613586,-2.290528 -1.613586,-2.290528 -1.178955,1.031372 -1.67627,2.569763 -1.67627,2.569763 -1.540283,-1.687439 -0.157104,-3.890136 -0.157104,-3.890136 H 6.772644 L 25.91687,18.190918 c 7.848145,0.953247 7.261536,6.674499 7.261536,6.674499 h 1.621032 c -0.01416,-6.333862 6.887757,-6.674499 6.887757,-6.674499 l 19.775695,32.932068 -22.620727,-0.0047 c 1.210327,1.870423 -0.364624,3.893677 -0.364624,3.893677 -0.330017,-1.320374 -1.385132,-2.566162 -1.385132,-2.566162 -0.38501,0.275024 -1.713623,2.28894 -1.713623,2.28894 V 60 h 3.325195 l 9.16e-4,-3.190796 28.801086,0.0031 z M 26.929443,16.340271 33.964416,3.8851929 40.947449,16.314453 c 0,0 -6.726868,2.77301 -14.018006,0.02582 z"
     id="path7" /><path
     d="m 36.051941,16.745972 c -2.395203,-1.710083 -4.291321,0.01978 -4.291321,0.01978 2.150086,0.371338 4.291321,-0.01978 4.291321,-0.01978 z"
     id="path8" /></g>
</svg>
