<?xml version="1.0" encoding="UTF-8" standalone="no"?>
<!DOCTYPE svg PUBLIC "-//W3C//DTD SVG 1.0//EN" "http://www.w3.org/TR/2001/REC-SVG-20010904/DTD/svg10.dtd">
<!-- Created with Inkscape (http://www.inkscape.org/) by Steadfast-->
<svg
   xmlns:svg="http://www.w3.org/2000/svg"
   xmlns="http://www.w3.org/2000/svg"
   version="1.0"
   width="900"
   height="803"
   id="svg3343">
  <defs
     id="defs3345" />
  <g
     id="layer1">
    <g
       transform="matrix(7.0350754,0,0,7.0350754,-1580.1218,-1313.5863)"
       id="g3440">
      <path
         d="M 350.68143,288.84075 L 226.39643,288.84075 L 226.39643,277.50325 L 350.68143,277.50325 L 350.68143,288.84075 z"
         id="path137"
         style="fill:#2c4d82;fill-opacity:1;fill-rule:nonzero;stroke:none" />
      <path
         d="M 249.75768,253.58575 L 249.75768,250.57075 L 253.78893,250.57075 L 253.78893,248.767 L 249.75768,248.767 L 249.75768,245.857 L 253.93268,245.857 L 253.93268,244.0545 L 247.95393,244.0545 L 247.95393,255.38825 L 254.06393,255.39075 L 254.06393,253.58575 L 249.75768,253.58575 z"
         id="path139"
         style="fill:#000000;fill-opacity:1;fill-rule:nonzero;stroke:none" />
      <path
         d="M 302.01518,253.58575 L 302.01518,250.57075 L 306.05143,250.57075 L 306.05143,248.767 L 302.01518,248.767 L 302.01518,245.857 L 306.19268,245.857 L 306.19268,244.0545 L 300.21768,244.0545 L 300.21768,255.38825 L 306.32518,255.39075 L 306.32518,253.58575 L 302.01518,253.58575 z"
         id="path141"
         style="fill:#000000;fill-opacity:1;fill-rule:nonzero;stroke:none" />
      <path
         d="M 243.05393,244.0545 L 243.05393,248.82325 L 237.90018,248.82325 L 237.90018,244.0545 L 236.09268,244.0545 L 236.09268,255.38825 L 237.90018,255.38825 L 237.90018,250.622 L 243.05393,250.622 L 243.05393,255.38825 L 244.86018,255.38825 L 244.86018,244.0545 L 243.05393,244.0545 z"
         id="path143"
         style="fill:#000000;fill-opacity:1;fill-rule:nonzero;stroke:none" />
      <path
         d="M 267.75643,244.0545 L 267.75643,250.6195 C 267.75643,251.7745 267.59018,252.4345 267.18643,252.88325 C 266.91143,253.18825 266.26393,253.69825 265.01893,253.69825 C 264.21518,253.69825 263.56893,253.41575 263.03893,252.8345 C 262.62643,252.36825 262.49893,251.8745 262.49893,250.71825 L 262.49893,244.057 L 260.69518,244.0545 L 260.69518,251.052 C 260.69518,252.48575 261.15643,253.662 262.02768,254.45825 C 262.79268,255.15075 263.84018,255.5345 264.99268,255.5345 C 266.47143,255.5345 267.62643,255.102 268.42268,254.25325 C 269.16643,253.457 269.56268,252.292 269.56268,250.89325 L 269.56268,244.0545 L 267.75643,244.0545"
         id="path145"
         style="fill:#000000;fill-opacity:1;fill-rule:nonzero;stroke:none" />
      <path
         d="M 279.94768,244.0545 L 279.94768,252.16075 C 279.78893,251.95825 273.56643,244.0545 273.56643,244.0545 L 272.15268,244.0545 L 272.15268,255.38825 L 273.86893,255.38825 L 273.86893,247.3345 C 274.03268,247.5395 280.16768,255.38825 280.16768,255.38825 L 281.66893,255.38825 L 281.66893,244.0545 L 279.94768,244.0545"
         id="path147"
         style="fill:#000000;fill-opacity:1;fill-rule:nonzero;stroke:none" />
      <path
         d="M 296.14518,244.0545 C 296.14518,244.0545 293.41143,251.177 293.32893,251.392 C 293.24643,251.177 290.50518,244.0545 290.50518,244.0545 L 288.67393,244.0545 L 293.08643,255.48325 L 293.64518,255.48575 L 297.96143,244.0545 L 296.14518,244.0545"
         id="path149"
         style="fill:#000000;fill-opacity:1;fill-rule:nonzero;stroke:none" />
      <path
         d="M 312.08893,245.79075 C 313.26518,245.79075 313.81768,246.2545 313.83018,247.25325 L 313.83018,247.2945 C 313.83018,247.76825 313.70143,248.1345 313.44893,248.39575 C 313.16018,248.6895 312.69893,248.83825 312.08893,248.83825 L 311.37518,248.83825 L 311.37518,245.79075 L 312.08893,245.79075 z M 309.56643,244.0545 L 309.56643,255.39075 L 311.37518,255.38825 L 311.37518,250.637 L 311.77143,250.637 C 312.39018,250.637 312.92643,250.81075 314.21768,253.0445 L 315.57268,255.38825 L 317.73643,255.38825 L 317.43768,254.9345 C 316.84393,254.02075 316.59643,253.6445 316.20268,252.9345 C 315.85768,252.3095 315.50768,251.662 315.15018,251.137 C 314.83268,250.67325 314.52893,250.322 314.19643,250.0345 C 315.15018,249.4945 315.67768,248.53325 315.67768,247.3145 C 315.67768,246.33075 315.35518,245.50575 314.74518,244.932 C 314.13893,244.35825 313.27893,244.0545 312.25018,244.0545 L 309.56643,244.0545"
         id="path151"
         style="fill:#000000;fill-opacity:1;fill-rule:evenodd;stroke:none" />
      <path
         d="M 320.04018,244.75825 C 319.46893,245.3145 319.16643,246.10075 319.16643,247.02575 C 319.16643,248.59575 320.25893,249.46575 321.38018,250.222 L 321.65518,250.40825 L 322.15643,250.7545 C 322.44768,250.962 322.65018,251.12825 322.81643,251.292 C 323.23393,251.6945 323.42643,252.092 323.42643,252.54325 C 323.42643,253.00325 323.04143,253.73325 322.01393,253.73325 C 321.12393,253.73325 320.25518,253.19825 319.57768,252.227 L 319.30643,251.84075 L 319.22143,251.71825 L 319.27643,254.46325 L 319.29143,254.477 C 320.15393,255.19825 321.06643,255.5345 322.17143,255.5345 C 322.99768,255.5345 323.74893,255.212 324.29393,254.6295 C 324.82768,254.05075 325.12893,253.2495 325.12893,252.36825 C 325.12893,250.50575 323.98143,249.6095 322.90643,248.91075 L 322.12518,248.41825 C 321.84393,248.2345 321.63518,248.08075 321.46768,247.937 C 321.05018,247.57575 320.86518,247.23075 320.86518,246.81575 C 320.86518,246.1645 321.43018,245.71075 322.23393,245.71075 C 322.98893,245.71075 323.72268,246.0745 324.40018,246.7895 L 324.66018,247.06325 L 324.74018,247.14575 L 324.74018,244.77825 L 324.71768,244.76325 L 324.66018,244.717 C 323.94518,244.1895 323.14518,243.90825 322.34643,243.90825 C 321.40893,243.90825 320.60768,244.2045 320.04018,244.75825"
         id="path153"
         style="fill:#000000;fill-opacity:1;fill-rule:nonzero;stroke:none" />
      <path
         d="M 348.93143,244.0545 C 348.93143,244.0545 346.43518,247.57825 346.36393,247.68325 C 346.29018,247.57825 343.82018,244.057 343.82018,244.057 L 341.63518,244.0545 C 341.63518,244.0545 345.45768,249.43825 345.47268,249.46325 L 345.47268,255.39325 L 347.27643,255.39325 L 347.27643,249.477 C 347.29518,249.45325 351.11518,244.0545 351.11518,244.0545 L 348.93143,244.0545"
         id="path155"
         style="fill:#000000;fill-opacity:1;fill-rule:nonzero;stroke:none" />
      <path
         d="M 286.43268,255.38825 L 284.63143,255.38825 L 284.63143,244.05575 L 286.43268,244.05575 L 286.43268,255.38825 z"
         id="path157"
         style="fill:#000000;fill-opacity:1;fill-rule:evenodd;stroke:none" />
      <path
         d="M 330.05768,255.38825 L 328.25143,255.38825 L 328.25143,244.05575 L 330.05768,244.05575 L 330.05768,255.38825 z"
         id="path159"
         style="fill:#000000;fill-opacity:1;fill-rule:evenodd;stroke:none" />
      <path
         d="M 234.64768,244.0545 L 226.02768,244.0545 L 226.02768,245.857 L 229.43518,245.857 L 229.43518,255.38825 L 231.24143,255.38825 L 231.24143,245.857 L 234.64768,245.857 L 234.64768,244.0545 z"
         id="path161"
         style="fill:#000000;fill-opacity:1;fill-rule:nonzero;stroke:none" />
      <path
         d="M 340.96643,244.0545 L 332.34643,244.0545 L 332.34643,245.857 L 335.75518,245.857 L 335.75518,255.38825 L 337.55768,255.38825 L 337.55768,245.857 L 340.96643,245.857 L 340.96643,244.0545 z"
         id="path163"
         style="fill:#000000;fill-opacity:1;fill-rule:nonzero;stroke:none" />
      <path
         d="M 314.80143,263.432 C 314.88643,263.637 316.05518,266.54575 316.09643,266.6645 L 313.60393,266.6645 C 313.64643,266.54825 314.72768,263.64075 314.80143,263.432 M 314.18768,260.29075 L 309.80143,271.6895 L 311.66643,271.6895 C 311.66643,271.6895 312.88518,268.52075 312.90643,268.4645 L 316.83643,268.4645 C 316.85768,268.52075 318.14518,271.6895 318.14518,271.6895 L 320.01143,271.6895 L 315.45143,260.29075 L 314.18768,260.29075"
         id="path165"
         style="fill:#000000;fill-opacity:1;fill-rule:evenodd;stroke:none" />
      <path
         d="M 303.77018,269.887 L 303.77018,260.35575 L 301.96393,260.35575 L 301.96393,271.6895 L 308.22268,271.6895 L 308.22268,269.887 L 303.77018,269.887 z"
         id="path167"
         style="fill:#000000;fill-opacity:1;fill-rule:nonzero;stroke:none" />
      <path
         d="M 251.82768,262.15575 L 251.82768,260.35575 L 246.18143,260.35575 L 246.18143,271.6895 L 247.98768,271.6895 L 247.98768,266.602 L 251.82768,266.602 L 251.82768,264.8045 L 247.98768,264.8045 L 247.98768,262.15575 L 251.82768,262.15575 z"
         id="path169"
         style="fill:#000000;fill-opacity:1;fill-rule:nonzero;stroke:none" />
      <path
         d="M 235.95393,268.8745 C 235.28268,268.1445 234.91643,267.13075 234.91643,266.02325 C 234.91643,264.9095 235.28268,263.8945 235.95393,263.167 C 236.61768,262.44325 237.53893,262.04575 238.54643,262.04575 C 240.66143,262.04575 242.19143,263.71825 242.19143,266.02325 C 242.19143,267.13075 241.82268,268.147 241.15143,268.8745 C 240.48518,269.602 239.55768,269.9995 238.54643,269.9995 C 237.54393,269.9995 236.62018,269.602 235.95393,268.8745 M 234.56268,261.94825 C 233.59768,263.0195 233.06768,264.46825 233.06768,266.02325 C 233.06768,267.56075 233.58768,268.9995 234.53518,270.07325 C 235.53643,271.20825 236.95268,271.83575 238.51768,271.83575 C 240.15268,271.83575 241.55893,271.22325 242.58018,270.06825 C 243.52268,268.9995 244.04268,267.56575 244.04268,266.02325 C 244.04268,264.45575 243.51518,263.00575 242.56018,261.94075 C 241.54768,260.81075 240.15518,260.2095 238.54643,260.2095 C 236.98393,260.2095 235.57018,260.82825 234.56268,261.94825"
         id="path171"
         style="fill:#000000;fill-opacity:1;fill-rule:evenodd;stroke:none" />
      <path
         d="M 261.73018,263.432 C 261.81143,263.637 262.97518,266.54575 263.02143,266.6645 L 260.53143,266.6645 C 260.57018,266.54825 261.65268,263.64075 261.73018,263.432 M 261.11018,260.29075 L 256.72518,271.6895 L 258.59268,271.6895 C 258.59268,271.6895 259.81143,268.52075 259.83143,268.4645 L 263.75643,268.4645 C 263.77893,268.52075 265.07268,271.6895 265.07268,271.6895 L 266.93518,271.6895 L 262.37768,260.29075 L 261.11018,260.29075"
         id="path173"
         style="fill:#000000;fill-opacity:1;fill-rule:evenodd;stroke:none" />
      <path
         d="M 279.18143,266.1845 C 279.18143,267.48325 279.67018,268.8695 280.49268,269.8945 C 281.20518,270.78075 282.50893,271.83575 284.68643,271.83575 C 286.41268,271.83575 287.50393,271.33825 288.42768,270.80075 L 288.45143,270.78825 L 288.45143,268.5795 L 288.37643,268.63075 L 288.13893,268.79825 C 287.07018,269.5745 285.89018,269.9995 284.81893,269.9995 C 283.71268,269.9995 282.76518,269.6245 282.07643,268.90325 C 281.38893,268.18825 281.03018,267.1945 281.03018,266.0395 C 281.03018,264.922 281.40518,263.90575 282.09393,263.17575 C 282.78018,262.44575 283.72518,262.04575 284.75768,262.04575 C 285.85143,262.04575 286.86643,262.3895 288.04893,263.152 L 288.27768,263.30075 L 288.35393,263.3495 L 288.26643,261.142 L 288.23643,261.13075 C 286.85518,260.48575 285.82018,260.2095 284.77518,260.2095 C 281.53518,260.2095 279.18143,262.722 279.18143,266.1845"
         id="path175"
         style="fill:#000000;fill-opacity:1;fill-rule:nonzero;stroke:none" />
      <path
         d="M 296.82768,260.35575 C 296.82768,260.35575 293.12893,264.8295 292.97518,265.017 L 292.97518,260.35575 L 291.17143,260.35575 L 291.17143,271.6895 L 292.97518,271.6895 L 292.97518,266.582 C 293.12768,266.74825 297.70768,271.6895 297.70768,271.6895 L 300.18143,271.6895 C 300.18143,271.6895 294.70768,265.78325 294.65643,265.7245 C 294.70768,265.6645 299.10143,260.35575 299.10143,260.35575 L 296.82768,260.35575"
         id="path177"
         style="fill:#000000;fill-opacity:1;fill-rule:nonzero;stroke:none" />
      <path
         d="M 338.41018,262.15575 C 339.63518,262.15575 340.63643,262.55325 341.30268,263.29825 C 341.90893,263.9745 342.23018,264.917 342.23018,266.02325 C 342.23018,267.45825 341.43643,269.887 338.48018,269.887 L 336.42268,269.887 L 336.42268,262.15575 L 338.41018,262.15575 z M 334.61893,260.35575 L 334.61893,271.6895 L 338.65643,271.6895 C 340.24393,271.6895 341.62018,271.0845 342.63393,269.94075 C 343.55018,268.90325 344.07768,267.47575 344.07768,266.02325 C 344.07768,264.602 343.60393,263.20325 342.77518,262.1945 C 341.79143,260.99075 340.36393,260.35575 338.64143,260.35575 L 334.61893,260.35575"
         id="path179"
         style="fill:#000000;fill-opacity:1;fill-rule:evenodd;stroke:none" />
      <path
         d="M 275.27268,260.3595 L 275.27268,266.92325 C 275.27268,268.07825 275.10643,268.73325 274.70143,269.1845 C 274.42518,269.487 273.78143,269.9995 272.53643,269.9995 C 271.73018,269.9995 271.08143,269.7195 270.55643,269.13575 C 270.14393,268.672 270.01393,268.17825 270.01393,267.017 L 270.01393,260.3595 L 268.21268,260.35575 L 268.21268,267.35825 C 268.21268,268.7895 268.67393,269.96575 269.54518,270.762 C 270.30768,271.45325 271.35643,271.83575 272.50643,271.83575 C 273.99143,271.83575 275.14143,271.40325 275.93643,270.557 C 276.68393,269.75825 277.07768,268.59825 277.07768,267.1945 L 277.07768,260.3595 L 275.27268,260.3595"
         id="path181"
         style="fill:#000000;fill-opacity:1;fill-rule:nonzero;stroke:none" />
      <path
         d="M 329.94268,260.3595 L 329.94268,268.4645 C 329.78143,268.262 323.56268,260.3595 323.56268,260.3595 L 322.14518,260.35575 L 322.14518,271.6895 L 323.86268,271.6895 L 323.86268,263.637 C 324.02393,263.84325 330.16268,271.692 330.16268,271.692 L 331.66518,271.692 L 331.66518,260.3595 L 329.94268,260.3595"
         id="path183"
         style="fill:#000000;fill-opacity:1;fill-rule:nonzero;stroke:none" />
      <path
         d="M 288.77018,236.2895 C 307.83268,228.312 309.68643,212.012 309.68643,209.54825 L 309.68643,188.43575 L 288.76393,188.43575 L 288.77018,188.43575 L 267.85018,188.43575 L 267.85018,209.54825 C 267.85018,212.012 269.71268,228.312 288.77018,236.2895"
         id="path185"
         style="fill:#ffffff;fill-opacity:1;fill-rule:nonzero;stroke:none" />
      <path
         d="M 288.77018,236.2895 C 307.83268,228.312 309.68643,212.012 309.68643,209.54825 L 309.68643,188.43575 L 288.76393,188.43575 L 288.77018,188.43575 L 267.85018,188.43575 L 267.85018,209.54825 C 267.85018,212.012 269.71268,228.312 288.77018,236.2895 z"
         id="path195"
         style="fill:none;stroke:#000000;stroke-width:0.4975;stroke-linecap:butt;stroke-linejoin:miter;stroke-miterlimit:3.86400008;stroke-dasharray:none;stroke-opacity:1" />
      <path
         d="M 309.64143,201.03325 C 309.49518,201.02325 309.34643,201.01825 309.19518,201.01825 C 307.95768,201.01825 306.79518,201.3545 305.80143,201.9395 C 304.80143,202.53075 303.63393,202.867 302.39018,202.867 C 301.15018,202.867 299.99018,202.532 298.99393,201.94575 L 298.98268,201.9395 C 297.98393,201.3495 296.82018,201.01075 295.57393,201.01075 C 294.33768,201.01075 293.17518,201.347 292.17768,201.93325 L 292.17018,201.93325 C 291.17018,202.522 290.00643,202.86075 288.76393,202.86075 C 287.52268,202.86075 286.36143,202.5245 285.36768,201.9395 L 285.35768,201.9295 C 284.35893,201.3395 283.19393,201.00075 281.94893,201.00075 C 280.71143,201.00075 279.55018,201.337 278.55393,201.922 L 278.54643,201.9195 C 277.55018,202.50575 276.38768,202.84075 275.15018,202.84075 C 273.90768,202.84075 272.74268,202.502 271.74143,201.91325 L 271.73518,201.91825 C 270.73893,201.332 269.57893,200.99575 268.33893,200.99575 C 268.17518,200.99575 268.12893,201.0095 267.96768,201.022 L 267.85018,201.02825 L 267.85018,209.54825 C 267.85018,212.012 269.71268,228.312 288.77018,236.2895 C 307.83268,228.312 309.68643,212.012 309.68643,209.54825 L 309.68643,201.04575 L 309.64143,201.03325"
         id="path197"
         style="fill:#2c4d82;fill-opacity:1;fill-rule:nonzero;stroke:none" />
      <path
         d="M 309.64143,201.03325 C 309.49518,201.02325 309.34643,201.01825 309.19518,201.01825 C 307.95768,201.01825 306.79518,201.3545 305.80143,201.9395 C 304.80143,202.53075 303.63393,202.867 302.39018,202.867 C 301.15018,202.867 299.99018,202.532 298.99393,201.94575 L 298.98268,201.9395 C 297.98393,201.3495 296.82018,201.01075 295.57393,201.01075 C 294.33768,201.01075 293.17518,201.347 292.17768,201.93325 L 292.17018,201.93325 C 291.17018,202.522 290.00643,202.86075 288.76393,202.86075 C 287.52268,202.86075 286.36143,202.5245 285.36768,201.9395 L 285.35768,201.9295 C 284.35893,201.3395 283.19393,201.00075 281.94893,201.00075 C 280.71143,201.00075 279.55018,201.337 278.55393,201.922 L 278.54643,201.9195 C 277.55018,202.50575 276.38768,202.84075 275.15018,202.84075 C 273.90768,202.84075 272.74268,202.502 271.74143,201.91325 L 271.73518,201.91825 C 270.73893,201.332 269.57893,200.99575 268.33893,200.99575 C 268.17518,200.99575 268.12893,201.0095 267.96768,201.022 L 267.85018,201.02825 L 267.85018,209.54825 C 267.85018,212.012 269.71268,228.312 288.77018,236.2895 C 307.83268,228.312 309.68643,212.012 309.68643,209.54825 L 309.68643,201.04575 L 309.64143,201.03325 z"
         id="path199"
         style="fill:none;stroke:#000000;stroke-width:0.41875002;stroke-linecap:butt;stroke-linejoin:miter;stroke-miterlimit:3.86400008;stroke-dasharray:none;stroke-opacity:1" />
      <path
         d="M 288.76643,212.027 C 290.87018,210.54825 292.98643,210.3145 294.97643,211.157 C 296.62768,211.85575 297.78143,211.93325 299.33768,211.56075 L 301.46768,212.63575 L 301.96268,212.632 C 302.09893,212.46825 302.30643,212.36325 302.54018,212.36325 C 302.94518,212.36325 303.27518,212.6745 303.27518,213.0595 C 303.27518,213.4445 302.94518,213.75575 302.54018,213.75575 C 302.30768,213.75575 302.10018,213.65325 301.96643,213.4945 L 301.46768,213.4945 L 301.46768,214.07075 L 301.96268,214.07075 C 302.09893,213.907 302.30643,213.802 302.54018,213.802 C 302.94518,213.802 303.27518,214.1145 303.27518,214.497 C 303.27518,214.88325 302.94518,215.19575 302.54018,215.19575 C 302.30768,215.19575 302.10018,215.092 301.96643,214.932 L 301.46768,214.932 L 301.46768,215.50825 L 301.96643,215.50825 C 302.10018,215.3445 302.30768,215.2395 302.54518,215.2395 C 302.95018,215.2395 303.28018,215.552 303.28018,215.937 C 303.28018,216.322 302.95018,216.63325 302.54518,216.63325 C 302.31143,216.63325 302.10393,216.53075 301.96768,216.37075 L 301.46768,216.37075 L 301.46768,216.947 L 301.97143,216.947 C 302.10393,216.7845 302.31268,216.67825 302.54643,216.67825 C 302.95143,216.67825 303.28143,216.99075 303.28143,217.37575 C 303.28143,217.76075 302.95143,218.072 302.54643,218.072 C 302.31518,218.072 302.10768,217.9695 301.97268,217.8095 L 301.46768,217.8095 L 301.46768,218.387 L 301.97268,218.387 C 302.10768,218.22325 302.31518,218.117 302.55018,218.117 C 302.95518,218.117 303.28518,218.42825 303.28518,218.8145 C 303.28518,219.1995 302.95518,219.51075 302.55018,219.51075 C 302.31643,219.51075 302.10893,219.40825 301.97643,219.247 L 301.46768,219.247 L 301.46768,219.8245 L 301.97643,219.8245 C 302.11268,219.66075 302.31643,219.55575 302.55518,219.55575 C 302.95893,219.55575 303.29018,219.867 303.29018,220.252 C 303.29018,220.63825 302.95893,220.95075 302.55518,220.95075 C 302.32143,220.95075 302.11268,220.84825 301.98018,220.687 L 301.46768,220.687 L 301.46768,221.26325 L 301.98018,221.26325 C 302.11268,221.0995 302.32143,220.9945 302.55643,220.9945 C 302.96268,220.9945 303.29143,221.307 303.29143,221.69075 C 303.29143,222.07575 302.96268,222.38825 302.55643,222.38825 C 302.32143,222.38825 302.11768,222.28575 301.98018,222.1245 L 301.46768,222.1245 C 300.25393,223.17325 298.97893,223.5745 297.50393,223.5745 C 296.27018,223.5745 295.53643,223.382 294.74768,222.86075 C 293.44268,222.002 291.85143,222.002 290.57518,222.86075 C 290.84893,223.007 291.03393,223.29825 291.03393,223.6295 C 291.03393,224.1095 290.64268,224.497 290.16518,224.497 L 287.36893,224.497 C 286.89143,224.497 286.50018,224.1095 286.50018,223.6295 C 286.50018,223.29825 286.68643,223.007 286.95893,222.86075 C 285.68268,222.002 284.08768,222.002 282.78643,222.86075 C 281.99768,223.382 281.26393,223.5745 280.03018,223.5745 C 278.55393,223.5745 277.27643,223.17325 276.06518,222.1245 L 275.55268,222.1245 C 275.41893,222.28575 275.20893,222.38825 274.97643,222.38825 C 274.57143,222.38825 274.24143,222.07575 274.24143,221.69075 C 274.24143,221.307 274.57143,220.9945 274.97643,220.9945 C 275.21393,220.9945 275.42143,221.0995 275.55518,221.26325 L 276.06518,221.26325 L 276.06518,220.687 L 275.55518,220.687 C 275.42143,220.84825 275.21393,220.95075 274.97893,220.95075 C 274.57393,220.95075 274.24643,220.63825 274.24643,220.252 C 274.24643,219.867 274.57393,219.55575 274.97893,219.55575 C 275.21643,219.55575 275.42393,219.66075 275.55768,219.8245 L 276.06518,219.8245 L 276.06518,219.247 L 275.55768,219.247 C 275.42393,219.40825 275.21643,219.51075 274.98393,219.51075 C 274.57893,219.51075 274.24893,219.1995 274.24893,218.8145 C 274.24893,218.42825 274.57893,218.117 274.98393,218.117 C 275.21893,218.117 275.42643,218.22325 275.56018,218.387 L 276.06518,218.387 L 276.06518,217.8095 L 275.56268,217.8095 C 275.42893,217.9695 275.22143,218.072 274.98643,218.072 C 274.58143,218.072 274.25143,217.76075 274.25143,217.37575 C 274.25143,216.99075 274.58143,216.67825 274.98643,216.67825 C 275.22393,216.67825 275.43143,216.7845 275.56518,216.947 L 276.06518,216.947 L 276.06518,216.37075 L 275.56518,216.37075 C 275.43143,216.53075 275.22393,216.63325 274.98893,216.63325 C 274.58393,216.63325 274.25643,216.322 274.25643,215.937 C 274.25643,215.552 274.58393,215.2395 274.98893,215.2395 C 275.22518,215.2395 275.43393,215.3445 275.56768,215.50825 L 276.06518,215.50825 L 276.06518,214.932 L 275.56768,214.932 C 275.43393,215.092 275.22518,215.19575 274.99393,215.19575 C 274.58893,215.19575 274.25893,214.88325 274.25893,214.497 C 274.25893,214.1145 274.58893,213.802 274.99393,213.802 C 275.22893,213.802 275.43518,213.907 275.57018,214.07075 L 276.06518,214.07075 L 276.06518,213.4945 L 275.56768,213.4945 C 275.43393,213.65325 275.22518,213.75575 274.99393,213.75575 C 274.58893,213.75575 274.25893,213.4445 274.25893,213.0595 C 274.25893,212.6745 274.58893,212.36325 274.99393,212.36325 C 275.22893,212.36325 275.43518,212.46825 275.57018,212.632 L 276.06518,212.63575 L 278.19643,211.56075 C 279.75268,211.93325 280.90643,211.85575 282.55768,211.157 C 284.54768,210.3145 286.66393,210.54825 288.76643,212.027"
         id="path201"
         style="fill:#ffffff;fill-opacity:1;fill-rule:nonzero;stroke:none" />
      <path
         d="M 299.58768,211.8245 L 299.58768,221.21825 C 298.27143,221.917 297.17768,222.1595 295.11393,221.087 C 292.71643,219.8445 290.22893,220.62825 288.76643,222.0995 C 287.30643,220.62825 284.81768,219.8445 282.42018,221.087 C 280.35518,222.1595 279.26393,221.917 277.94768,221.21825 L 277.94768,211.8245 M 288.76643,212.027 L 288.76643,223.5995 M 287.64768,223.5995 L 289.89143,223.5995 M 288.76643,212.027 C 290.87018,210.54825 292.98643,210.3145 294.97643,211.157 C 296.62768,211.85575 297.78143,211.93325 299.33768,211.56075 L 301.46768,212.63575 L 301.96268,212.632 C 302.09893,212.46825 302.30643,212.36325 302.54018,212.36325 C 302.94518,212.36325 303.27518,212.6745 303.27518,213.0595 C 303.27518,213.4445 302.94518,213.75575 302.54018,213.75575 C 302.30768,213.75575 302.10018,213.65325 301.96643,213.4945 L 301.46768,213.4945 L 301.46768,214.07075 L 301.96268,214.07075 C 302.09893,213.907 302.30643,213.802 302.54018,213.802 C 302.94518,213.802 303.27518,214.1145 303.27518,214.497 C 303.27518,214.88325 302.94518,215.19575 302.54018,215.19575 C 302.30768,215.19575 302.10018,215.092 301.96643,214.932 L 301.46768,214.932 L 301.46768,215.50825 L 301.96643,215.50825 C 302.10018,215.3445 302.30768,215.2395 302.54518,215.2395 C 302.95018,215.2395 303.28018,215.552 303.28018,215.937 C 303.28018,216.322 302.95018,216.63325 302.54518,216.63325 C 302.31143,216.63325 302.10393,216.53075 301.96768,216.37075 L 301.46768,216.37075 L 301.46768,216.947 L 301.97143,216.947 C 302.10393,216.7845 302.31268,216.67825 302.54643,216.67825 C 302.95143,216.67825 303.28143,216.99075 303.28143,217.37575 C 303.28143,217.76075 302.95143,218.072 302.54643,218.072 C 302.31518,218.072 302.10768,217.9695 301.97268,217.8095 L 301.46768,217.8095 L 301.46768,218.387 L 301.97268,218.387 C 302.10768,218.22325 302.31518,218.117 302.55018,218.117 C 302.95518,218.117 303.28518,218.42825 303.28518,218.8145 C 303.28518,219.1995 302.95518,219.51075 302.55018,219.51075 C 302.31643,219.51075 302.10893,219.40825 301.97643,219.247 L 301.46768,219.247 L 301.46768,219.8245 L 301.97643,219.8245 C 302.11268,219.66075 302.31643,219.55575 302.55518,219.55575 C 302.95893,219.55575 303.29018,219.867 303.29018,220.252 C 303.29018,220.63825 302.95893,220.95075 302.55518,220.95075 C 302.32143,220.95075 302.11268,220.84825 301.98018,220.687 L 301.46768,220.687 L 301.46768,221.26325 L 301.98018,221.26325 C 302.11268,221.0995 302.32143,220.9945 302.55643,220.9945 C 302.96268,220.9945 303.29143,221.307 303.29143,221.69075 C 303.29143,222.07575 302.96268,222.38825 302.55643,222.38825 C 302.32143,222.38825 302.11768,222.28575 301.98018,222.1245 L 301.46768,222.1245 C 300.25393,223.17325 298.97893,223.5745 297.50393,223.5745 C 296.27018,223.5745 295.53643,223.382 294.74768,222.86075 C 293.44268,222.002 291.85143,222.002 290.57518,222.86075 C 290.84893,223.007 291.03393,223.29825 291.03393,223.6295 C 291.03393,224.1095 290.64268,224.497 290.16518,224.497 L 287.36893,224.497 C 286.89143,224.497 286.50018,224.1095 286.50018,223.6295 C 286.50018,223.29825 286.68643,223.007 286.95893,222.86075 C 285.68268,222.002 284.08768,222.002 282.78643,222.86075 C 281.99768,223.382 281.26393,223.5745 280.03018,223.5745 C 278.55393,223.5745 277.27643,223.17325 276.06518,222.1245 L 275.55268,222.1245 C 275.41893,222.28575 275.20893,222.38825 274.97643,222.38825 C 274.57143,222.38825 274.24143,222.07575 274.24143,221.69075 C 274.24143,221.307 274.57143,220.9945 274.97643,220.9945 C 275.21393,220.9945 275.42143,221.0995 275.55518,221.26325 L 276.06518,221.26325 L 276.06518,220.687 L 275.55518,220.687 C 275.42143,220.84825 275.21393,220.95075 274.97893,220.95075 C 274.57393,220.95075 274.24643,220.63825 274.24643,220.252 C 274.24643,219.867 274.57393,219.55575 274.97893,219.55575 C 275.21643,219.55575 275.42393,219.66075 275.55768,219.8245 L 276.06518,219.8245 L 276.06518,219.247 L 275.55768,219.247 C 275.42393,219.40825 275.21643,219.51075 274.98393,219.51075 C 274.57893,219.51075 274.24893,219.1995 274.24893,218.8145 C 274.24893,218.42825 274.57893,218.117 274.98393,218.117 C 275.21893,218.117 275.42643,218.22325 275.56018,218.387 L 276.06518,218.387 L 276.06518,217.8095 L 275.56268,217.8095 C 275.42893,217.9695 275.22143,218.072 274.98643,218.072 C 274.58143,218.072 274.25143,217.76075 274.25143,217.37575 C 274.25143,216.99075 274.58143,216.67825 274.98643,216.67825 C 275.22393,216.67825 275.43143,216.7845 275.56518,216.947 L 276.06518,216.947 L 276.06518,216.37075 L 275.56518,216.37075 C 275.43143,216.53075 275.22393,216.63325 274.98893,216.63325 C 274.58393,216.63325 274.25643,216.322 274.25643,215.937 C 274.25643,215.552 274.58393,215.2395 274.98893,215.2395 C 275.22518,215.2395 275.43393,215.3445 275.56768,215.50825 L 276.06518,215.50825 L 276.06518,214.932 L 275.56768,214.932 C 275.43393,215.092 275.22518,215.19575 274.99393,215.19575 C 274.58893,215.19575 274.25893,214.88325 274.25893,214.497 C 274.25893,214.1145 274.58893,213.802 274.99393,213.802 C 275.22893,213.802 275.43518,213.907 275.57018,214.07075 L 276.06518,214.07075 L 276.06518,213.4945 L 275.56768,213.4945 C 275.43393,213.65325 275.22518,213.75575 274.99393,213.75575 C 274.58893,213.75575 274.25893,213.4445 274.25893,213.0595 C 274.25893,212.6745 274.58893,212.36325 274.99393,212.36325 C 275.22893,212.36325 275.43518,212.46825 275.57018,212.632 L 276.06518,212.63575 L 278.19643,211.56075 C 279.75268,211.93325 280.90643,211.85575 282.55768,211.157 C 284.54768,210.3145 286.66393,210.54825 288.76643,212.027 z"
         id="path203"
         style="fill:none;stroke:#000000;stroke-width:0.4425;stroke-linecap:round;stroke-linejoin:miter;stroke-miterlimit:3.86400008;stroke-dasharray:none;stroke-opacity:1" />
      <path
         d="M 300.49518,212.182 L 300.49518,221.73325 C 298.59268,222.932 296.74893,222.977 295.16018,222.07825 C 293.10268,220.91575 290.27518,220.997 288.76643,223.5995 C 287.26018,220.997 284.43018,220.91575 282.37393,222.07825 C 280.78518,222.977 278.94143,222.932 277.03518,221.73325 L 277.03518,212.182"
         id="path205"
         style="fill:none;stroke:#000000;stroke-width:0.4425;stroke-linecap:round;stroke-linejoin:bevel;stroke-miterlimit:3.86400008;stroke-dasharray:none;stroke-opacity:1" />
      <path
         d="M 280.55768,202.8945 L 281.37143,205.44825 L 284.08518,205.44825 L 281.85393,207.05575 L 282.66018,209.5895 L 280.55768,208.00075 L 278.45643,209.5895 L 279.26143,207.05575 L 277.03018,205.44825 L 279.74268,205.44825 L 280.55768,202.8945 z"
         id="path207"
         style="fill:#ffffff;fill-opacity:1;fill-rule:nonzero;stroke:none" />
      <path
         d="M 280.55768,202.8945 L 281.37143,205.44825 L 284.08518,205.44825 L 281.85393,207.05575 L 282.66018,209.5895 L 280.55768,208.00075 L 278.45643,209.5895 L 279.26143,207.05575 L 277.03018,205.44825 L 279.74268,205.44825 L 280.55768,202.8945 z"
         id="path209"
         style="fill:none;stroke:#000000;stroke-width:0.41875002;stroke-linecap:butt;stroke-linejoin:miter;stroke-miterlimit:3.86400008;stroke-dasharray:none;stroke-opacity:1" />
      <path
         d="M 296.96268,202.86825 L 297.77643,205.422 L 300.49143,205.422 L 298.25893,207.03075 L 299.06643,209.5645 L 296.96268,207.97575 L 294.86393,209.5645 L 295.66643,207.03075 L 293.43643,205.422 L 296.15018,205.422 L 296.96268,202.86825 z"
         id="path211"
         style="fill:#ffffff;fill-opacity:1;fill-rule:nonzero;stroke:none" />
      <path
         d="M 296.96268,202.86825 L 297.77643,205.422 L 300.49143,205.422 L 298.25893,207.03075 L 299.06643,209.5645 L 296.96268,207.97575 L 294.86393,209.5645 L 295.66643,207.03075 L 293.43643,205.422 L 296.15018,205.422 L 296.96268,202.86825 z"
         id="path213"
         style="fill:none;stroke:#000000;stroke-width:0.41875002;stroke-linecap:butt;stroke-linejoin:miter;stroke-miterlimit:3.86400008;stroke-dasharray:none;stroke-opacity:1" />
      <path
         d="M 288.76643,226.567 L 289.57893,229.12075 L 292.29018,229.12075 L 290.06268,230.72825 L 290.86518,233.262 L 288.76643,231.67325 L 286.66393,233.262 L 287.46768,230.72825 L 285.23518,229.12075 L 287.95018,229.12075 L 288.76643,226.567 z"
         id="path215"
         style="fill:#ffffff;fill-opacity:1;fill-rule:nonzero;stroke:none" />
      <path
         d="M 288.76643,226.567 L 289.57893,229.12075 L 292.29018,229.12075 L 290.06268,230.72825 L 290.86518,233.262 L 288.76643,231.67325 L 286.66393,233.262 L 287.46768,230.72825 L 285.23518,229.12075 L 287.95018,229.12075 L 288.76643,226.567 z"
         id="path217"
         style="fill:none;stroke:#000000;stroke-width:0.41875002;stroke-linecap:butt;stroke-linejoin:miter;stroke-miterlimit:3.86400008;stroke-dasharray:none;stroke-opacity:1" />
      <path
         d="M 274.09768,191.587 C 274.86018,190.69325 275.85018,190.5995 276.30268,190.57825 C 279.51768,190.4795 281.14893,192.8845 281.07518,194.8095 C 280.99518,197.007 279.33268,197.5195 279.10518,197.582 C 279.10518,197.582 279.07893,198.05825 279.44893,198.6995 C 279.47393,198.74575 279.54768,198.802 279.47643,198.92575 C 279.46643,198.952 279.40018,199.072 279.38643,199.09325 C 279.36893,199.1145 279.34018,199.18325 279.36393,199.26575 C 279.40268,199.407 279.34893,199.57825 279.24393,199.77575 C 279.16393,199.95325 279.25643,200.3995 279.30268,200.69825 C 279.31018,200.76325 279.26393,200.7645 279.22518,200.7195 C 279.02018,200.587 278.86393,200.17825 278.81268,199.94825 C 278.42143,200.052 277.97018,200.627 277.81893,200.96075 C 277.80393,201.00825 277.72143,201.05825 277.70643,200.95325 C 277.70143,200.92575 277.62268,200.28075 278.24768,199.812 C 277.93393,199.71075 277.60393,199.86575 277.38143,199.98575 C 277.36393,200.002 277.27143,200.04325 277.34018,199.942 C 277.35518,199.9195 277.53518,199.51075 278.37018,199.392 C 278.38018,199.3645 278.55643,199.08825 278.62893,198.87575 C 278.60768,198.5645 278.44393,198.17075 278.24768,197.80575 C 278.21643,197.807 277.62143,197.857 277.20393,198.182 C 277.17643,198.19825 277.12268,198.2545 277.12268,198.337 L 277.12268,198.517 C 277.12768,198.54075 277.09143,198.707 276.87643,198.777 C 276.85643,198.79325 276.15393,199.017 275.81893,199.17575 C 275.80018,199.1895 275.49893,199.322 275.27768,199.6345 C 275.23018,199.6845 275.05268,199.9595 274.79643,200.04325 C 274.73268,200.05825 274.59643,200.122 274.49643,200.222 C 274.39518,200.32075 274.30518,200.4195 274.22268,200.47325 C 274.13643,200.527 273.94643,200.732 273.81018,201.0145 C 273.79018,201.0545 273.74893,201.10575 273.74643,201.0145 C 273.73643,200.8995 273.75393,200.752 273.74893,200.7495 C 273.83143,200.3945 273.99268,200.21325 274.13143,200.05825 C 274.07643,200.042 274.08518,200.052 274.02768,200.02075 C 273.77018,200.052 272.96518,199.9795 272.48143,200.21575 C 272.44768,200.23325 272.40893,200.227 272.44768,200.17575 C 272.53518,200.0545 272.71393,199.587 273.80268,199.562 C 273.81768,199.4595 273.31643,199.2145 273.06518,199.2145 C 272.98518,199.2145 273.03143,199.172 273.06518,199.1595 C 273.12143,199.132 273.60018,198.927 274.16643,199.29575 C 274.19018,199.2795 274.57393,199.14075 274.78893,199.122 C 275.05268,198.927 275.63393,198.34325 275.86768,198.252 C 275.86518,198.217 275.84643,198.09325 275.87518,197.96575 L 275.84643,197.96075 C 275.54268,197.5295 275.49643,196.89575 275.50893,196.547 C 274.88393,196.487 274.21768,195.9295 273.86143,195.477 C 273.40643,195.447 272.50893,195.062 272.02768,194.0895 C 270.38643,195.2695 269.31768,197.37075 269.25893,197.467 C 269.22018,197.49575 269.19768,197.49575 269.16893,197.4745 C 268.99018,197.14825 268.95393,196.65075 269.01268,196.4945 C 269.33268,195.62575 270.08893,194.43075 270.91393,193.3695 C 270.60143,191.5795 272.25018,190.98575 272.88893,191.00825 C 273.55393,191.02325 274.01768,191.45325 274.09768,191.587"
         id="path219"
         style="fill:#000000;fill-opacity:1;fill-rule:nonzero;stroke:none" />
      <path
         d="M 273.96893,192.38825 C 273.96893,192.38825 274.75268,191.112 275.75518,191.08325 C 275.47268,191.35325 275.41143,191.53575 275.41143,191.53575 L 275.41643,191.602 C 275.41643,191.602 275.86768,191.127 276.75893,191.127 C 276.44393,191.34575 276.31518,191.56575 276.31518,191.56575 L 276.32143,191.59825 C 276.30268,191.65075 276.93018,191.18325 277.89143,191.56575 C 277.67643,191.5795 277.34268,191.7245 277.30643,191.817 C 277.27143,191.847 277.30893,191.847 277.30893,191.847 C 278.47018,191.69825 279.51018,192.95325 279.48893,194.11075 C 279.45393,194.9445 278.89268,195.80575 277.80143,196.057 C 277.65018,196.2345 277.42268,196.932 277.42268,196.932 C 276.90018,197.10325 276.26643,197.56325 276.17518,197.66325 C 276.17518,197.66325 276.16643,197.637 276.16768,197.667 L 276.12143,197.607 C 275.92893,197.277 275.92893,196.2645 275.91643,196.14575 C 274.79643,196.2495 274.16643,195.19575 274.02518,195.092 C 272.76268,195.0095 272.21268,193.5845 272.11518,193.5095 C 271.16518,194.0895 270.23018,195.2695 269.58393,196.1895 C 269.59893,196.1595 269.56893,196.16825 269.58393,196.13825 C 270.30143,194.652 271.14143,193.91575 271.39518,193.44325 C 270.84643,192.25575 272.27893,191.3795 272.91893,191.47575 C 273.79518,191.47575 273.96893,192.38825 273.96893,192.38825"
         id="path221"
         style="fill:#ffffff;fill-opacity:1;fill-rule:nonzero;stroke:none" />
      <path
         d="M 271.65143,192.957 C 271.65143,192.8095 271.77143,192.6895 271.92018,192.6895 C 272.06643,192.6895 272.18643,192.8095 272.18643,192.957 C 272.18643,193.1045 272.06643,193.2245 271.92018,193.2245 C 271.77143,193.2245 271.65143,193.1045 271.65143,192.957"
         id="path223"
         style="fill:#000000;fill-opacity:1;fill-rule:nonzero;stroke:none" />
      <path
         d="M 287.66768,191.587 C 288.42643,190.69325 289.41768,190.5995 289.87143,190.57825 C 293.08393,190.4795 294.71768,192.8845 294.64518,194.8095 C 294.56268,197.007 292.90018,197.5195 292.67518,197.582 C 292.67518,197.582 292.64518,198.05825 293.01893,198.6995 C 293.04143,198.74575 293.11518,198.802 293.04518,198.92575 C 293.03393,198.952 292.96893,199.072 292.95143,199.09325 C 292.93768,199.1145 292.90893,199.18325 292.93268,199.26575 C 292.97268,199.407 292.91768,199.57825 292.81268,199.77575 C 292.73268,199.95325 292.82268,200.3995 292.86893,200.69825 C 292.88018,200.76325 292.83268,200.7645 292.79393,200.7195 C 292.59143,200.587 292.43143,200.17825 292.38018,199.94825 C 291.99018,200.052 291.53893,200.627 291.38393,200.96075 C 291.37393,201.00825 291.29018,201.05825 291.27393,200.95325 C 291.26893,200.92575 291.19268,200.28075 291.81518,199.812 C 291.49893,199.71075 291.17268,199.86575 290.94893,199.98575 C 290.93143,200.002 290.83893,200.04325 290.90893,199.942 C 290.92393,199.9195 291.10518,199.51075 291.94018,199.392 C 291.94768,199.3645 292.12393,199.08825 292.19643,198.87575 C 292.17643,198.5645 292.01268,198.17075 291.81518,197.80575 C 291.78643,197.807 291.19018,197.857 290.77018,198.182 C 290.74393,198.19825 290.69268,198.2545 290.69268,198.337 L 290.69268,198.517 C 290.69768,198.54075 290.66018,198.707 290.44268,198.777 C 290.42643,198.79325 289.72268,199.017 289.38643,199.17575 C 289.36893,199.1895 289.06643,199.322 288.84643,199.6345 C 288.79768,199.6845 288.61893,199.9595 288.36268,200.04325 C 288.30018,200.05825 288.16268,200.122 288.06518,200.222 C 287.96518,200.32075 287.87518,200.4195 287.78893,200.47325 C 287.70393,200.527 287.51393,200.732 287.37893,201.0145 C 287.35768,201.0545 287.31518,201.10575 287.31518,201.0145 C 287.30643,200.8995 287.32018,200.752 287.31518,200.7495 C 287.39893,200.3945 287.56018,200.21325 287.70143,200.05825 C 287.64518,200.042 287.65268,200.052 287.59393,200.02075 C 287.34018,200.052 286.53143,199.9795 286.04893,200.21575 C 286.01393,200.23325 285.97768,200.227 286.01393,200.17575 C 286.10518,200.0545 286.28268,199.587 287.36893,199.562 C 287.38393,199.4595 286.88393,199.2145 286.63143,199.2145 C 286.55393,199.2145 286.60018,199.172 286.63143,199.1595 C 286.69018,199.132 287.16643,198.927 287.73268,199.29575 C 287.75768,199.2795 288.14143,199.14075 288.35768,199.122 C 288.61893,198.927 289.20268,198.34325 289.43768,198.252 C 289.43268,198.217 289.41518,198.09325 289.44393,197.96575 L 289.41518,197.96075 C 289.11268,197.5295 289.06393,196.89575 289.07643,196.547 C 288.45393,196.487 287.78393,195.9295 287.42768,195.477 C 286.97643,195.447 286.07768,195.062 285.59393,194.0895 C 283.95393,195.2695 282.88643,197.37075 282.82643,197.467 C 282.78893,197.49575 282.76768,197.49575 282.73768,197.4745 C 282.56018,197.14825 282.52268,196.65075 282.58143,196.4945 C 282.90143,195.62575 283.65893,194.43075 284.48143,193.3695 C 284.16893,191.5795 285.81893,190.98575 286.45643,191.00825 C 287.12018,191.02325 287.58393,191.45325 287.66768,191.587"
         id="path225"
         style="fill:#000000;fill-opacity:1;fill-rule:nonzero;stroke:none" />
      <path
         d="M 287.53518,192.38825 C 287.53518,192.38825 288.31893,191.112 289.32518,191.08325 C 289.03893,191.35325 288.98018,191.53575 288.98018,191.53575 L 288.98268,191.602 C 288.98268,191.602 289.43768,191.127 290.32893,191.127 C 290.01393,191.34575 289.88143,191.56575 289.88143,191.56575 L 289.88893,191.59825 C 289.87143,191.65075 290.49643,191.18325 291.46143,191.56575 C 291.24393,191.5795 290.90893,191.7245 290.87268,191.817 C 290.83893,191.847 290.87768,191.847 290.87768,191.847 C 292.04018,191.69825 293.07768,192.95325 293.05518,194.11075 C 293.02018,194.9445 292.46268,195.80575 291.37018,196.057 C 291.21893,196.2345 290.99268,196.932 290.99268,196.932 C 290.47018,197.10325 289.83268,197.56325 289.74518,197.66325 C 289.74518,197.66325 289.73518,197.637 289.73768,197.667 L 289.68893,197.607 C 289.49643,197.277 289.49893,196.2645 289.48643,196.14575 C 288.36518,196.2495 287.73268,195.19575 287.59143,195.092 C 286.32893,195.0095 285.78018,193.5845 285.68518,193.5095 C 284.73518,194.0895 283.79768,195.2695 283.15268,196.1895 C 283.16768,196.1595 283.13893,196.16825 283.15268,196.13825 C 283.86893,194.652 284.71018,193.91575 284.96518,193.44325 C 284.41518,192.25575 285.84893,191.3795 286.48518,191.47575 C 287.36268,191.47575 287.53518,192.38825 287.53518,192.38825"
         id="path227"
         style="fill:#ffffff;fill-opacity:1;fill-rule:nonzero;stroke:none" />
      <path
         d="M 285.22143,192.957 C 285.22143,192.8095 285.34018,192.6895 285.48768,192.6895 C 285.63643,192.6895 285.75518,192.8095 285.75518,192.957 C 285.75518,193.1045 285.63643,193.2245 285.48768,193.2245 C 285.34018,193.2245 285.22143,193.1045 285.22143,192.957"
         id="path229"
         style="fill:#000000;fill-opacity:1;fill-rule:nonzero;stroke:none" />
      <path
         d="M 301.15018,191.587 C 301.91143,190.69325 302.90393,190.5995 303.35768,190.57825 C 306.57143,190.4795 308.20143,192.8845 308.13018,194.8095 C 308.04643,197.007 306.38393,197.5195 306.16143,197.582 C 306.16143,197.582 306.13018,198.05825 306.50393,198.6995 C 306.52643,198.74575 306.60268,198.802 306.53018,198.92575 C 306.52018,198.952 306.45643,199.072 306.43768,199.09325 C 306.42143,199.1145 306.39518,199.18325 306.42018,199.26575 C 306.45768,199.407 306.40143,199.57825 306.30018,199.77575 C 306.21893,199.95325 306.31143,200.3995 306.35518,200.69825 C 306.36393,200.76325 306.31893,200.7645 306.28018,200.7195 C 306.07518,200.587 305.91893,200.17825 305.86768,199.94825 C 305.47768,200.052 305.02393,200.627 304.87018,200.96075 C 304.85893,201.00825 304.77518,201.05825 304.76018,200.95325 C 304.75643,200.92575 304.67768,200.28075 305.30143,199.812 C 304.98643,199.71075 304.65893,199.86575 304.43518,199.98575 C 304.41643,200.002 304.32393,200.04325 304.39518,199.942 C 304.41018,199.9195 304.59143,199.51075 305.42268,199.392 C 305.43268,199.3645 305.61143,199.08825 305.68143,198.87575 C 305.66143,198.5645 305.49893,198.17075 305.30143,197.80575 C 305.27143,197.807 304.67643,197.857 304.25518,198.182 C 304.22893,198.19825 304.17643,198.2545 304.17643,198.337 L 304.17643,198.517 C 304.18268,198.54075 304.14518,198.707 303.93018,198.777 C 303.91143,198.79325 303.20643,199.017 302.87268,199.17575 C 302.85393,199.1895 302.55143,199.322 302.33268,199.6345 C 302.28393,199.6845 302.10393,199.9595 301.84768,200.04325 C 301.78643,200.05825 301.64893,200.122 301.55143,200.222 C 301.45143,200.32075 301.36018,200.4195 301.27393,200.47325 C 301.19018,200.527 300.99893,200.732 300.86268,201.0145 C 300.84268,201.0545 300.80143,201.10575 300.79893,201.0145 C 300.79143,200.8995 300.80518,200.752 300.80143,200.7495 C 300.88393,200.3945 301.04643,200.21325 301.18643,200.05825 C 301.13018,200.042 301.13893,200.052 301.08268,200.02075 C 300.82268,200.052 300.01768,199.9795 299.53518,200.21575 C 299.50018,200.23325 299.46268,200.227 299.50018,200.17575 C 299.58768,200.0545 299.76893,199.587 300.85393,199.562 C 300.86893,199.4595 300.36893,199.2145 300.11893,199.2145 C 300.04018,199.2145 300.08268,199.172 300.11893,199.1595 C 300.17643,199.132 300.65143,198.927 301.21893,199.29575 C 301.24393,199.2795 301.62768,199.14075 301.84393,199.122 C 302.10393,198.927 302.68768,198.34325 302.92143,198.252 C 302.91768,198.217 302.90018,198.09325 302.93143,197.96575 L 302.90018,197.96075 C 302.59643,197.5295 302.55018,196.89575 302.56143,196.547 C 301.94018,196.487 301.27018,195.9295 300.91518,195.477 C 300.46268,195.447 299.56268,195.062 299.08018,194.0895 C 297.44018,195.2695 296.37018,197.37075 296.31143,197.467 C 296.27393,197.49575 296.25018,197.49575 296.22143,197.4745 C 296.04643,197.14825 296.00643,196.65075 296.06518,196.4945 C 296.38393,195.62575 297.14143,194.43075 297.96768,193.3695 C 297.65518,191.5795 299.30518,190.98575 299.94143,191.00825 C 300.60643,191.02325 301.07018,191.45325 301.15018,191.587"
         id="path231"
         style="fill:#000000;fill-opacity:1;fill-rule:nonzero;stroke:none" />
      <path
         d="M 301.02393,192.38825 C 301.02393,192.38825 301.80518,191.112 302.81143,191.08325 C 302.52393,191.35325 302.46768,191.53575 302.46768,191.53575 L 302.47143,191.602 C 302.47143,191.602 302.92143,191.127 303.81518,191.127 C 303.49768,191.34575 303.36768,191.56575 303.36768,191.56575 L 303.37393,191.59825 C 303.35768,191.65075 303.98393,191.18325 304.94518,191.56575 C 304.72893,191.5795 304.39768,191.7245 304.35768,191.817 C 304.32393,191.847 304.36393,191.847 304.36393,191.847 C 305.52518,191.69825 306.56268,192.95325 306.54018,194.11075 C 306.50768,194.9445 305.94643,195.80575 304.85768,196.057 C 304.70518,196.2345 304.47643,196.932 304.47643,196.932 C 303.95643,197.10325 303.32143,197.56325 303.23018,197.66325 C 303.23018,197.66325 303.21768,197.637 303.22268,197.667 L 303.17518,197.607 C 302.98268,197.277 302.98393,196.2645 302.96893,196.14575 C 301.84768,196.2495 301.21893,195.19575 301.07643,195.092 C 299.81518,195.0095 299.26518,193.5845 299.17143,193.5095 C 298.21768,194.0895 297.28393,195.2695 296.63893,196.1895 C 296.65018,196.1595 296.62393,196.16825 296.63893,196.13825 C 297.35393,194.652 298.19393,193.91575 298.45143,193.44325 C 297.90018,192.25575 299.33268,191.3795 299.97143,191.47575 C 300.84893,191.47575 301.02393,192.38825 301.02393,192.38825"
         id="path233"
         style="fill:#ffffff;fill-opacity:1;fill-rule:nonzero;stroke:none" />
      <path
         d="M 298.70768,192.957 C 298.70768,192.8095 298.82643,192.6895 298.97393,192.6895 C 299.12268,192.6895 299.24143,192.8095 299.24143,192.957 C 299.24143,193.1045 299.12268,193.2245 298.97393,193.2245 C 298.82643,193.2245 298.70768,193.1045 298.70768,192.957"
         id="path235"
         style="fill:#000000;fill-opacity:1;fill-rule:nonzero;stroke:none" />
      <path
         d="M 265.31768,293.16825 L 266.93018,293.16825 L 266.93018,292.7895 L 265.31768,292.7895 L 265.31768,293.16825 z"
         id="path237"
         style="fill:#000000;fill-opacity:1;fill-rule:nonzero;stroke:none" />
      <path
         d="M 299.04893,293.16825 L 300.62018,293.16825 L 300.62018,292.7895 L 299.04893,292.7895 L 299.04893,293.16825 z"
         id="path239"
         style="fill:#000000;fill-opacity:1;fill-rule:nonzero;stroke:none" />
      <path
         d="M 228.55143,292.90075 L 228.55143,297.55575 L 227.93768,297.55575 L 227.93768,292.90075 L 226.47143,292.90075 L 226.47143,292.38825 L 230.01768,292.38825 L 230.01768,292.90075 L 228.55143,292.90075 z"
         id="path241"
         style="fill:#000000;fill-opacity:1;fill-rule:nonzero;stroke:none" />
      <path
         d="M 232.60018,295.227 C 232.58518,294.70075 232.34518,294.227 231.70143,294.227 C 231.10393,294.227 230.77768,294.647 230.67643,295.227 L 232.60018,295.227 z M 231.81643,297.1595 C 232.33643,297.1595 232.68643,296.927 232.84893,296.827 L 233.08143,297.26825 C 232.89518,297.39325 232.47643,297.64825 231.80143,297.64825 C 230.63018,297.64825 230.04018,296.772 230.04018,295.67075 C 230.04018,294.57575 230.72268,293.73825 231.71643,293.73825 C 232.71768,293.73825 233.26768,294.5145 233.16768,295.67825 L 230.64518,295.67825 C 230.66143,296.4695 230.98018,297.1595 231.81643,297.1595"
         id="path243"
         style="fill:#000000;fill-opacity:1;fill-rule:nonzero;stroke:none" />
      <path
         d="M 240.48393,297.55575 L 239.93268,297.55575 L 238.93143,294.0645 C 238.81518,293.65325 238.71393,293.1095 238.70643,293.07075 L 238.69143,293.07075 C 238.68393,293.1095 238.55893,293.637 238.43518,294.0645 L 237.41143,297.55575 L 236.86018,297.55575 L 235.44768,292.38825 L 236.10768,292.38825 L 236.98393,295.84075 C 237.07643,296.22075 237.16268,296.702 237.17018,296.74075 L 237.18518,296.74075 C 237.19393,296.702 237.30268,296.22075 237.41143,295.84075 L 238.40393,292.38825 L 239.02518,292.38825 L 240.00268,295.817 C 240.11893,296.22075 240.21143,296.687 240.21893,296.72575 L 240.23518,296.72575 C 240.24268,296.687 240.30518,296.237 240.41268,295.817 L 241.30518,292.38825 L 241.90268,292.38825 L 240.48393,297.55575"
         id="path245"
         style="fill:#000000;fill-opacity:1;fill-rule:nonzero;stroke:none" />
      <path
         d="M 244.99018,297.55575 L 244.99018,295.01075 C 244.99018,294.54575 244.82893,294.2495 244.33143,294.2495 C 243.75768,294.2495 243.33018,294.8245 243.25268,294.93325 L 243.25268,297.55575 L 242.68643,297.55575 L 242.68643,291.9695 L 243.25268,291.9695 L 243.25268,294.367 C 243.41643,294.157 243.81143,293.73825 244.46393,293.73825 C 245.24768,293.73825 245.55768,294.25825 245.55768,294.902 L 245.55768,297.55575 L 244.99018,297.55575"
         id="path247"
         style="fill:#000000;fill-opacity:1;fill-rule:nonzero;stroke:none" />
      <path
         d="M 248.65268,295.787 L 248.48893,295.787 C 247.69018,295.787 247.10893,296.0045 247.10893,296.632 C 247.10893,297.0195 247.43518,297.1595 247.65893,297.1595 C 248.07893,297.1595 248.41143,296.94325 248.65268,296.6245 L 248.65268,295.787 z M 248.73768,297.55575 C 248.71518,297.4545 248.69143,297.222 248.68393,297.1045 C 248.43518,297.41575 248.02393,297.64825 247.56643,297.64825 C 246.94643,297.64825 246.50393,297.25325 246.50393,296.647 C 246.50393,295.662 247.59018,295.36825 248.48893,295.36825 L 248.65268,295.36825 L 248.65268,295.01825 C 248.65268,294.467 248.42018,294.242 247.90768,294.242 C 247.56643,294.242 247.27143,294.35075 246.93768,294.647 L 246.63518,294.2495 C 247.00018,293.9095 247.42643,293.73825 247.94643,293.73825 C 248.76143,293.73825 249.21893,294.127 249.21893,294.972 L 249.21893,296.7095 C 249.21893,297.082 249.25768,297.377 249.30393,297.55575 L 248.73768,297.55575"
         id="path249"
         style="fill:#000000;fill-opacity:1;fill-rule:nonzero;stroke:none" />
      <path
         d="M 252.26768,294.35825 C 252.23018,294.33575 252.13643,294.297 251.94268,294.297 C 251.38393,294.297 251.07393,294.94075 251.02643,295.057 L 251.02643,297.55575 L 250.46018,297.55575 L 250.46018,293.83075 L 251.02643,293.83075 L 251.02643,294.41325 C 251.17393,294.16575 251.50018,293.73825 252.02018,293.73825 C 252.24518,293.73825 252.36143,293.792 252.40768,293.817 L 252.26768,294.35825"
         id="path251"
         style="fill:#000000;fill-opacity:1;fill-rule:nonzero;stroke:none" />
      <path
         d="M 255.37143,295.227 C 255.35643,294.70075 255.11518,294.227 254.47143,294.227 C 253.87393,294.227 253.54768,294.647 253.44768,295.227 L 255.37143,295.227 z M 254.58768,297.1595 C 255.10768,297.1595 255.45643,296.927 255.62018,296.827 L 255.85268,297.26825 C 255.66643,297.39325 255.24768,297.64825 254.57268,297.64825 C 253.40018,297.64825 252.81018,296.772 252.81018,295.67075 C 252.81018,294.57575 253.49393,293.73825 254.48643,293.73825 C 255.48768,293.73825 256.03768,294.5145 255.93768,295.67825 L 253.41643,295.67825 C 253.43143,296.4695 253.75018,297.1595 254.58768,297.1595"
         id="path253"
         style="fill:#000000;fill-opacity:1;fill-rule:nonzero;stroke:none" />
      <path
         d="M 263.24643,297.55575 L 262.69518,297.55575 L 261.69393,294.0645 C 261.57893,293.65325 261.47768,293.1095 261.47018,293.07075 L 261.45393,293.07075 C 261.44643,293.1095 261.32143,293.637 261.19768,294.0645 L 260.17393,297.55575 L 259.62268,297.55575 L 258.21143,292.38825 L 258.87018,292.38825 L 259.74768,295.84075 C 259.84018,296.22075 259.92518,296.702 259.93393,296.74075 L 259.94893,296.74075 C 259.95643,296.702 260.06518,296.22075 260.17393,295.84075 L 261.16768,292.38825 L 261.78768,292.38825 L 262.76518,295.817 C 262.88143,296.22075 262.97518,296.687 262.98268,296.72575 L 262.99768,296.72575 C 263.00643,296.687 263.06768,296.237 263.17643,295.817 L 264.06893,292.38825 L 264.66643,292.38825 L 263.24643,297.55575"
         id="path255"
         style="fill:#000000;fill-opacity:1;fill-rule:nonzero;stroke:none" />
      <path
         d="M 266.86768,295.787 L 266.70518,295.787 C 265.90643,295.787 265.32393,296.0045 265.32393,296.632 C 265.32393,297.0195 265.65018,297.1595 265.87518,297.1595 C 266.29393,297.1595 266.62768,296.94325 266.86768,296.6245 L 266.86768,295.787 z M 266.95268,297.55575 C 266.93018,297.4545 266.90643,297.222 266.89893,297.1045 C 266.65018,297.41575 266.24018,297.64825 265.78143,297.64825 C 265.16143,297.64825 264.71893,297.25325 264.71893,296.647 C 264.71893,295.662 265.80518,295.36825 266.70518,295.36825 L 266.86768,295.36825 L 266.86768,295.01825 C 266.86768,294.467 266.63518,294.242 266.12268,294.242 C 265.78143,294.242 265.48768,294.35075 265.15268,294.647 L 264.85018,294.2495 C 265.21518,293.9095 265.64268,293.73825 266.16268,293.73825 C 266.97643,293.73825 267.43393,294.127 267.43393,294.972 L 267.43393,296.7095 C 267.43393,297.082 267.47268,297.377 267.51893,297.55575 L 266.95268,297.55575"
         id="path257"
         style="fill:#000000;fill-opacity:1;fill-rule:nonzero;stroke:none" />
      <path
         d="M 270.99518,297.55575 L 270.99518,295.01075 C 270.99518,294.54575 270.83268,294.2495 270.33518,294.2495 C 269.91643,294.2495 269.52143,294.56825 269.25768,294.93325 L 269.25768,297.55575 L 268.69143,297.55575 L 268.69143,293.83075 L 269.25768,293.83075 L 269.25768,294.367 C 269.59143,293.94825 270.01018,293.73825 270.46768,293.73825 C 271.25143,293.73825 271.56143,294.25825 271.56143,294.902 L 271.56143,297.55575 L 270.99518,297.55575"
         id="path259"
         style="fill:#000000;fill-opacity:1;fill-rule:nonzero;stroke:none" />
      <path
         d="M 274.67268,295.787 L 274.51018,295.787 C 273.71143,295.787 273.12893,296.0045 273.12893,296.632 C 273.12893,297.0195 273.45518,297.1595 273.68018,297.1595 C 274.09893,297.1595 274.43268,296.94325 274.67268,296.6245 L 274.67268,295.787 z M 274.75893,297.55575 C 274.73518,297.4545 274.71143,297.222 274.70393,297.1045 C 274.45518,297.41575 274.04518,297.64825 273.58768,297.64825 C 272.96643,297.64825 272.52393,297.25325 272.52393,296.647 C 272.52393,295.662 273.61018,295.36825 274.51018,295.36825 L 274.67268,295.36825 L 274.67268,295.01825 C 274.67268,294.467 274.44018,294.242 273.92768,294.242 C 273.58768,294.242 273.29268,294.35075 272.95893,294.647 L 272.65518,294.2495 C 273.02018,293.9095 273.44768,293.73825 273.96768,293.73825 C 274.78143,293.73825 275.23893,294.127 275.23893,294.972 L 275.23893,296.7095 C 275.23893,297.082 275.27768,297.377 275.32518,297.55575 L 274.75893,297.55575"
         id="path261"
         style="fill:#000000;fill-opacity:1;fill-rule:nonzero;stroke:none" />
      <path
         d="M 278.80018,297.55575 L 278.80018,295.01075 C 278.80018,294.54575 278.63768,294.2495 278.14143,294.2495 C 277.72268,294.2495 277.32643,294.56825 277.06268,294.93325 L 277.06268,297.55575 L 276.49643,297.55575 L 276.49643,293.83075 L 277.06268,293.83075 L 277.06268,294.367 C 277.39643,293.94825 277.81518,293.73825 278.27268,293.73825 C 279.05643,293.73825 279.36643,294.25825 279.36643,294.902 L 279.36643,297.55575 L 278.80018,297.55575"
         id="path263"
         style="fill:#000000;fill-opacity:1;fill-rule:nonzero;stroke:none" />
      <path
         d="M 281.86518,294.20325 C 281.29143,294.20325 280.95768,294.5845 280.95768,295.1045 C 280.95768,295.62325 281.29143,296.0045 281.86518,296.0045 C 282.43893,296.0045 282.77268,295.62325 282.77268,295.1045 C 282.77268,294.5845 282.43893,294.20325 281.86518,294.20325 M 280.91018,298.29325 C 280.91018,298.6495 281.19768,298.9445 281.86518,298.9445 C 282.60143,298.9445 283.09768,298.642 283.09768,298.1845 C 283.09768,297.5945 282.57143,297.58575 282.13643,297.56325 C 281.89518,297.54825 281.64018,297.5395 281.41518,297.5095 C 281.07393,297.71075 280.91018,297.9745 280.91018,298.29325 M 283.65643,293.83075 L 283.65643,294.282 L 283.08268,294.282 C 283.26143,294.50575 283.35518,294.79325 283.35518,295.1045 C 283.35518,295.88825 282.77268,296.4695 281.86518,296.4695 C 281.71768,296.4695 281.58518,296.45325 281.45393,296.42325 C 281.28268,296.50825 281.20518,296.6095 281.20518,296.73325 C 281.20518,296.93575 281.43768,297.012 281.73268,297.02825 C 282.54768,297.0745 283.67268,297.0045 283.67268,298.16075 C 283.67268,298.92825 282.80393,299.3945 281.84143,299.3945 C 281.01143,299.3945 280.35143,299.09075 280.35143,298.3545 C 280.35143,297.9345 280.61643,297.602 280.98768,297.39325 C 280.78643,297.292 280.65393,297.12825 280.65393,296.84075 C 280.65393,296.59325 280.82518,296.38325 281.03518,296.26075 C 280.61643,296.027 280.37518,295.5995 280.37518,295.1045 C 280.37518,294.32075 280.95768,293.73825 281.86518,293.73825 C 282.07393,293.73825 282.26768,293.7695 282.44643,293.83075 L 283.65643,293.83075"
         id="path265"
         style="fill:#000000;fill-opacity:1;fill-rule:nonzero;stroke:none" />
      <path
         d="M 286.41143,295.787 L 286.24768,295.787 C 285.44893,295.787 284.86768,296.0045 284.86768,296.632 C 284.86768,297.0195 285.19393,297.1595 285.41768,297.1595 C 285.83768,297.1595 286.17018,296.94325 286.41143,296.6245 L 286.41143,295.787 z M 286.49643,297.55575 C 286.47393,297.4545 286.45018,297.222 286.44268,297.1045 C 286.19393,297.41575 285.78268,297.64825 285.32518,297.64825 C 284.70393,297.64825 284.26268,297.25325 284.26268,296.647 C 284.26268,295.662 285.34893,295.36825 286.24768,295.36825 L 286.41143,295.36825 L 286.41143,295.01825 C 286.41143,294.467 286.17893,294.242 285.66643,294.242 C 285.32518,294.242 285.03018,294.35075 284.69643,294.647 L 284.39393,294.2495 C 284.75893,293.9095 285.18518,293.73825 285.70518,293.73825 C 286.52018,293.73825 286.97768,294.127 286.97768,294.972 L 286.97768,296.7095 C 286.97768,297.082 287.01643,297.377 287.06268,297.55575 L 286.49643,297.55575"
         id="path267"
         style="fill:#000000;fill-opacity:1;fill-rule:nonzero;stroke:none" />
      <path
         d="M 291.36018,294.227 C 290.58518,294.227 290.27518,294.887 290.27518,295.68575 C 290.27518,296.4845 290.62393,297.1595 291.40018,297.1595 C 292.17643,297.1595 292.54018,296.50075 292.54018,295.70075 C 292.54018,294.902 292.13643,294.227 291.36018,294.227 M 291.39268,297.64825 C 290.13518,297.64825 289.66893,296.57075 289.66893,295.70075 C 289.66893,294.832 290.11143,293.73825 291.36893,293.73825 C 292.62518,293.73825 293.14518,294.81575 293.14518,295.68575 C 293.14518,296.5545 292.64893,297.64825 291.39268,297.64825"
         id="path269"
         style="fill:#000000;fill-opacity:1;fill-rule:nonzero;stroke:none" />
      <path
         d="M 297.12393,292.90075 L 297.12393,297.55575 L 296.51018,297.55575 L 296.51018,292.90075 L 295.04518,292.90075 L 295.04518,292.38825 L 298.59143,292.38825 L 298.59143,292.90075 L 297.12393,292.90075 z"
         id="path271"
         style="fill:#000000;fill-opacity:1;fill-rule:nonzero;stroke:none" />
      <path
         d="M 300.63893,295.787 L 300.47518,295.787 C 299.67643,295.787 299.09268,296.0045 299.09268,296.632 C 299.09268,297.0195 299.42018,297.1595 299.64518,297.1595 C 300.06518,297.1595 300.39643,296.94325 300.63893,296.6245 L 300.63893,295.787 z M 300.72268,297.55575 C 300.70018,297.4545 300.67643,297.222 300.67018,297.1045 C 300.42143,297.41575 300.01018,297.64825 299.55143,297.64825 C 298.93018,297.64825 298.48893,297.25325 298.48893,296.647 C 298.48893,295.662 299.57518,295.36825 300.47518,295.36825 L 300.63893,295.36825 L 300.63893,295.01825 C 300.63893,294.467 300.40518,294.242 299.89393,294.242 C 299.55143,294.242 299.25768,294.35075 298.92393,294.647 L 298.62018,294.2495 C 298.98393,293.9095 299.41143,293.73825 299.93143,293.73825 C 300.74643,293.73825 301.20393,294.127 301.20393,294.972 L 301.20393,296.7095 C 301.20393,297.082 301.24393,297.377 301.29018,297.55575 L 300.72268,297.55575"
         id="path273"
         style="fill:#000000;fill-opacity:1;fill-rule:nonzero;stroke:none" />
      <path
         d="M 306.31768,293.73825 C 307.07143,293.73825 307.36393,294.242 307.36393,294.902 L 307.36393,297.55575 L 306.79893,297.55575 L 306.79893,295.01075 C 306.79893,294.56075 306.66018,294.2495 306.18643,294.2495 C 305.72768,294.2495 305.37268,294.607 305.19268,294.832 L 305.19268,297.55575 L 304.62768,297.55575 L 304.62768,295.01075 C 304.62768,294.54575 304.46268,294.2495 304.03018,294.2495 C 303.48518,294.2495 303.09768,294.81575 303.02018,294.9245 L 303.02018,297.55575 L 302.45393,297.55575 L 302.45393,293.83075 L 303.02018,293.83075 L 303.02018,294.35825 C 303.18518,294.157 303.52518,293.73825 304.16018,293.73825 C 304.70393,293.73825 304.99018,294.01825 305.11518,294.367 C 305.40143,294.04825 305.77518,293.73825 306.31768,293.73825"
         id="path275"
         style="fill:#000000;fill-opacity:1;fill-rule:nonzero;stroke:none" />
      <path
         d="M 310.47768,295.787 L 310.31518,295.787 C 309.51393,295.787 308.93143,296.0045 308.93143,296.632 C 308.93143,297.0195 309.25893,297.1595 309.48393,297.1595 C 309.90393,297.1595 310.23643,296.94325 310.47768,296.6245 L 310.47768,295.787 z M 310.56143,297.55575 C 310.53893,297.4545 310.51518,297.222 310.50893,297.1045 C 310.25893,297.41575 309.84768,297.64825 309.39018,297.64825 C 308.77018,297.64825 308.32768,297.25325 308.32768,296.647 C 308.32768,295.662 309.41393,295.36825 310.31518,295.36825 L 310.47768,295.36825 L 310.47768,295.01825 C 310.47768,294.467 310.24393,294.242 309.73268,294.242 C 309.39018,294.242 309.09643,294.35075 308.76393,294.647 L 308.46018,294.2495 C 308.82268,293.9095 309.25018,293.73825 309.77018,293.73825 C 310.58643,293.73825 311.04268,294.127 311.04268,294.972 L 311.04268,296.7095 C 311.04268,297.082 311.08268,297.377 311.12893,297.55575 L 310.56143,297.55575"
         id="path277"
         style="fill:#000000;fill-opacity:1;fill-rule:nonzero;stroke:none" />
      <path
         d="M 314.41643,293.83075 L 315.09268,293.83075 L 313.54018,295.477 L 315.16143,297.55575 L 314.47268,297.55575 L 312.88143,295.477 L 314.41643,293.83075 z M 312.27518,291.9695 L 312.84268,291.9695 L 312.84268,297.55575 L 312.27518,297.55575 L 312.27518,291.9695 z"
         id="path279"
         style="fill:#000000;fill-opacity:1;fill-rule:nonzero;stroke:none" />
      <path
         d="M 315.99268,293.83075 L 316.56643,293.83075 L 316.56643,297.55575 L 315.99268,297.55575 L 315.99268,293.83075 z M 316.69768,292.7145 C 316.69768,292.947 316.51143,293.13325 316.27893,293.13325 C 316.04643,293.13325 315.85893,292.947 315.85893,292.7145 C 315.85893,292.48075 316.04643,292.29575 316.27893,292.29575 C 316.51143,292.29575 316.69768,292.48075 316.69768,292.7145"
         id="path281"
         style="fill:#000000;fill-opacity:1;fill-rule:nonzero;stroke:none" />
      <path
         d="M 322.02018,297.55575 L 320.76393,294.16575 C 320.64018,293.83075 320.57768,293.6295 320.51518,293.452 L 320.50018,293.452 C 320.48518,293.637 320.46268,293.8395 320.42268,294.18825 L 320.01143,297.55575 L 319.44518,297.55575 L 320.15143,292.38825 L 320.71768,292.38825 L 321.99893,295.902 C 322.15268,296.337 322.23018,296.562 322.32268,296.857 L 322.33893,296.857 C 322.42518,296.57825 322.51018,296.3295 322.66643,295.902 L 323.94643,292.38825 L 324.52018,292.38825 L 325.21768,297.55575 L 324.60393,297.55575 L 324.16143,294.17325 C 324.11518,293.80075 324.09268,293.607 324.07768,293.452 L 324.06143,293.452 C 324.00768,293.6295 323.94643,293.8395 323.82768,294.16575 L 322.60268,297.55575 L 322.02018,297.55575"
         id="path283"
         style="fill:#000000;fill-opacity:1;fill-rule:nonzero;stroke:none" />
      <path
         d="M 328.14268,295.787 L 327.98018,295.787 C 327.18143,295.787 326.59768,296.0045 326.59768,296.632 C 326.59768,297.0195 326.92518,297.1595 327.15018,297.1595 C 327.56893,297.1595 327.90143,296.94325 328.14268,296.6245 L 328.14268,295.787 z M 328.22768,297.55575 C 328.20518,297.4545 328.18143,297.222 328.17518,297.1045 C 327.92643,297.41575 327.51518,297.64825 327.05518,297.64825 C 326.43643,297.64825 325.99393,297.25325 325.99393,296.647 C 325.99393,295.662 327.07893,295.36825 327.98018,295.36825 L 328.14268,295.36825 L 328.14268,295.01825 C 328.14268,294.467 327.91018,294.242 327.39893,294.242 C 327.05518,294.242 326.76143,294.35075 326.42893,294.647 L 326.12518,294.2495 C 326.48893,293.9095 326.91643,293.73825 327.43643,293.73825 C 328.25018,293.73825 328.70893,294.127 328.70893,294.972 L 328.70893,296.7095 C 328.70893,297.082 328.74893,297.377 328.79518,297.55575 L 328.22768,297.55575"
         id="path285"
         style="fill:#000000;fill-opacity:1;fill-rule:nonzero;stroke:none" />
      <path
         d="M 332.08268,293.83075 L 332.75893,293.83075 L 331.20768,295.477 L 332.82768,297.55575 L 332.13893,297.55575 L 330.54643,295.477 L 332.08268,293.83075 z M 329.94143,291.9695 L 330.50893,291.9695 L 330.50893,297.55575 L 329.94143,297.55575 L 329.94143,291.9695 z"
         id="path287"
         style="fill:#000000;fill-opacity:1;fill-rule:nonzero;stroke:none" />
      <path
         d="M 335.54143,295.787 L 335.37893,295.787 C 334.57768,295.787 333.99518,296.0045 333.99518,296.632 C 333.99518,297.0195 334.32143,297.1595 334.54768,297.1595 C 334.96768,297.1595 335.30018,296.94325 335.54143,296.6245 L 335.54143,295.787 z M 335.62518,297.55575 C 335.60268,297.4545 335.57893,297.222 335.57143,297.1045 C 335.32268,297.41575 334.91143,297.64825 334.45268,297.64825 C 333.83268,297.64825 333.39143,297.25325 333.39143,296.647 C 333.39143,295.662 334.47768,295.36825 335.37893,295.36825 L 335.54143,295.36825 L 335.54143,295.01825 C 335.54143,294.467 335.30768,294.242 334.79643,294.242 C 334.45268,294.242 334.16018,294.35075 333.82643,294.647 L 333.52393,294.2495 C 333.88768,293.9095 334.31518,293.73825 334.83393,293.73825 C 335.64893,293.73825 336.10768,294.127 336.10768,294.972 L 336.10768,296.7095 C 336.10768,297.082 336.14518,297.377 336.19143,297.55575 L 335.62518,297.55575"
         id="path289"
         style="fill:#000000;fill-opacity:1;fill-rule:nonzero;stroke:none" />
      <path
         d="M 337.76643,293.83075 L 337.76643,296.37575 C 337.76643,296.84075 337.93018,297.137 338.43518,297.137 C 339.00018,297.137 339.42643,296.562 339.50393,296.45325 L 339.50393,293.83075 L 340.07268,293.83075 L 340.07268,296.772 C 340.07268,297.09075 340.10893,297.40825 340.14018,297.55575 L 339.56643,297.55575 C 339.55143,297.46325 339.52018,297.19075 339.51268,297.0045 C 339.34268,297.237 338.94643,297.64825 338.30143,297.64825 C 337.51018,297.64825 337.20143,297.12825 337.20143,296.4845 L 337.20143,293.83075 L 337.76643,293.83075"
         id="path291"
         style="fill:#000000;fill-opacity:1;fill-rule:nonzero;stroke:none" />
      <path
         d="M 343.15643,294.35825 C 343.11893,294.33575 343.02518,294.297 342.83268,294.297 C 342.27143,294.297 341.96268,294.94075 341.91518,295.057 L 341.91518,297.55575 L 341.34893,297.55575 L 341.34893,293.83075 L 341.91518,293.83075 L 341.91518,294.41325 C 342.06268,294.16575 342.39018,293.73825 342.91018,293.73825 C 343.13518,293.73825 343.25018,293.792 343.29643,293.817 L 343.15643,294.35825"
         id="path293"
         style="fill:#000000;fill-opacity:1;fill-rule:nonzero;stroke:none" />
      <path
         d="M 345.89518,295.787 L 345.73393,295.787 C 344.93268,295.787 344.35143,296.0045 344.35143,296.632 C 344.35143,297.0195 344.67643,297.1595 344.90393,297.1595 C 345.32268,297.1595 345.65518,296.94325 345.89518,296.6245 L 345.89518,295.787 z M 345.98018,297.55575 C 345.95768,297.4545 345.93518,297.222 345.92643,297.1045 C 345.67768,297.41575 345.26643,297.64825 344.80893,297.64825 C 344.18768,297.64825 343.74768,297.25325 343.74768,296.647 C 343.74768,295.662 344.83268,295.36825 345.73393,295.36825 L 345.89518,295.36825 L 345.89518,295.01825 C 345.89518,294.467 345.66143,294.242 345.15018,294.242 C 344.80893,294.242 344.51393,294.35075 344.18143,294.647 L 343.87893,294.2495 C 344.24268,293.9095 344.67018,293.73825 345.19018,293.73825 C 346.00518,293.73825 346.46268,294.127 346.46268,294.972 L 346.46268,296.7095 C 346.46268,297.082 346.50018,297.377 346.54643,297.55575 L 345.98018,297.55575"
         id="path295"
         style="fill:#000000;fill-opacity:1;fill-rule:nonzero;stroke:none" />
      <path
         d="M 348.11518,293.83075 L 348.11518,296.37575 C 348.11518,296.84075 348.27893,297.137 348.78393,297.137 C 349.34893,297.137 349.77518,296.562 349.85393,296.45325 L 349.85393,293.83075 L 350.42143,293.83075 L 350.42143,296.772 C 350.42143,297.09075 350.45768,297.40825 350.48893,297.55575 L 349.91643,297.55575 C 349.90018,297.46325 349.86768,297.19075 349.86143,297.0045 C 349.69143,297.237 349.29518,297.64825 348.65143,297.64825 C 347.85893,297.64825 347.55018,297.12825 347.55018,296.4845 L 347.55018,293.83075 L 348.11518,293.83075"
         id="path297"
         style="fill:#000000;fill-opacity:1;fill-rule:nonzero;stroke:none" />
      <path
         d="M 259.67393,280.117 L 258.68268,280.117 L 258.68268,284.457 C 258.14518,283.837 254.91768,280.117 254.91768,280.117 L 253.96643,280.117 L 253.96643,286.45325 L 255.12643,286.45325 L 255.12643,282.1545 C 255.66393,282.77325 258.85768,286.45325 258.85768,286.45325 L 259.85393,286.45325 L 259.85393,280.117 L 259.67393,280.117"
         id="path299"
         style="fill:#ffffff;fill-opacity:1;fill-rule:nonzero;stroke:none" />
      <path
         d="M 265.12893,280.117 L 261.56018,280.117 L 261.56018,286.45325 L 265.38643,286.45325 L 265.38643,285.332 L 262.77893,285.332 L 262.77893,283.827 L 265.22143,283.827 L 265.22143,282.7045 L 262.77893,282.7045 L 262.77893,281.2395 L 265.30893,281.2395 L 265.30893,280.117 L 265.12893,280.117 z"
         id="path301"
         style="fill:#ffffff;fill-opacity:1;fill-rule:nonzero;stroke:none" />
      <path
         d="M 275.37268,280.117 L 274.39643,280.117 C 274.39643,280.117 273.15518,283.25325 272.88643,283.932 C 272.61518,283.2545 271.35768,280.117 271.35768,280.117 L 270.29643,280.117 C 270.29643,280.117 269.02893,283.26075 268.75768,283.9345 C 268.48893,283.26075 267.23518,280.117 267.23518,280.117 L 265.98518,280.117 L 268.52393,286.48325 L 268.96893,286.48325 C 268.96893,286.48325 270.53518,282.61575 270.81643,281.922 C 271.09393,282.617 272.64393,286.48325 272.64393,286.48325 L 273.08518,286.48325 L 275.64018,280.117 L 275.37268,280.117"
         id="path303"
         style="fill:#ffffff;fill-opacity:1;fill-rule:nonzero;stroke:none" />
      <path
         d="M 284.88018,280.117 L 279.55268,280.117 L 279.55268,281.2395 L 282.94143,281.2395 C 282.56768,281.75075 279.13393,286.45325 279.13393,286.45325 L 285.06018,286.45325 L 285.06018,285.332 L 281.42143,285.332 C 281.79518,284.8195 285.23518,280.117 285.23518,280.117 L 284.88018,280.117"
         id="path305"
         style="fill:#ffffff;fill-opacity:1;fill-rule:nonzero;stroke:none" />
      <path
         d="M 289.86893,280.117 L 286.30018,280.117 L 286.30018,286.45325 L 290.12643,286.45325 L 290.12643,285.332 L 287.52018,285.332 L 287.52018,283.827 L 289.96143,283.827 L 289.96143,282.7045 L 287.52018,282.7045 L 287.52018,281.2395 L 290.04893,281.2395 L 290.04893,280.117 L 289.86893,280.117 z"
         id="path307"
         style="fill:#ffffff;fill-opacity:1;fill-rule:nonzero;stroke:none" />
      <path
         d="M 299.13268,280.117 L 298.09393,280.117 L 298.09393,286.45325 L 302.00018,286.45325 L 302.00018,285.312 L 299.31268,285.312 L 299.31268,280.117 L 299.13268,280.117 z"
         id="path309"
         style="fill:#ffffff;fill-opacity:1;fill-rule:nonzero;stroke:none" />
      <path
         d="M 315.53643,280.117 L 314.54643,280.117 L 314.54643,284.457 C 314.00893,283.837 310.78018,280.117 310.78018,280.117 L 309.82768,280.117 L 309.82768,286.45325 L 310.99018,286.45325 L 310.99018,282.1545 C 311.52643,282.77325 314.72143,286.45325 314.72143,286.45325 L 315.71768,286.45325 L 315.71768,280.117 L 315.53643,280.117"
         id="path311"
         style="fill:#ffffff;fill-opacity:1;fill-rule:nonzero;stroke:none" />
      <path
         d="M 319.79018,285.32575 L 318.57018,285.32575 L 318.57018,281.21325 L 319.74893,281.21325 C 320.47393,281.21325 321.06643,281.4245 321.46268,281.82075 C 321.82143,282.18075 322.01268,282.682 322.01268,283.2695 C 322.01268,284.03325 321.54143,285.32575 319.79018,285.32575 M 322.44518,281.15325 C 321.83143,280.482 320.94143,280.127 319.86893,280.127 L 317.36018,280.127 L 317.36018,286.4495 L 319.87893,286.4495 C 320.86768,286.4495 321.72518,286.11075 322.35893,285.4745 C 322.92643,284.89575 323.25518,284.09825 323.25518,283.2895 C 323.25518,282.49575 322.95893,281.71575 322.44518,281.15325"
         id="path313"
         style="fill:#ffffff;fill-opacity:1;fill-rule:evenodd;stroke:none" />
      <path
         d="M 293.03268,283.59825 C 293.19893,283.217 293.60393,282.28075 293.84518,281.73825 C 294.09768,282.277 294.54018,283.21075 294.72018,283.59825 L 293.03268,283.59825 z M 294.27518,280.067 L 293.43268,280.067 L 290.70143,286.437 L 291.98018,286.437 C 291.98018,286.437 292.64643,284.862 292.72643,284.66825 L 295.05143,284.66825 C 295.13643,284.85575 295.85018,286.437 295.85018,286.437 L 297.12393,286.437 L 294.27518,280.067"
         id="path315"
         style="fill:#ffffff;fill-opacity:1;fill-rule:nonzero;stroke:none" />
      <path
         d="M 304.73143,283.59825 C 304.89893,283.217 305.30268,282.28075 305.54393,281.73825 C 305.79768,282.277 306.23893,283.21075 306.42018,283.59825 L 304.73143,283.59825 z M 305.97393,280.067 L 305.13143,280.067 L 302.40143,286.437 L 303.67893,286.437 C 303.67893,286.437 304.34518,284.862 304.42643,284.66825 L 306.75018,284.66825 C 306.83643,284.85575 307.55018,286.437 307.55018,286.437 L 308.82268,286.437 L 305.97393,280.067"
         id="path317"
         style="fill:#ffffff;fill-opacity:1;fill-rule:nonzero;stroke:none" />
    </g>
  </g>
</svg>
