<?xml version="1.0" encoding="UTF-8" standalone="no"?>
<svg
   version="1.1"
   id="Ebene_1"
   x="0px"
   y="0px"
   width="29"
   height="18.101141"
   viewBox="0 0 72.585149 45.048831"
   enable-background="new 0 0 235.276 146.835"
   xml:space="preserve"
   sodipodi:docname="vdi.svg"
   inkscape:version="1.3.2 (091e20e, 2023-11-25)"
   xmlns:inkscape="http://www.inkscape.org/namespaces/inkscape"
   xmlns:sodipodi="http://sodipodi.sourceforge.net/DTD/sodipodi-0.dtd"
   xmlns:xlink="http://www.w3.org/1999/xlink"
   xmlns="http://www.w3.org/2000/svg"
   xmlns:svg="http://www.w3.org/2000/svg"><defs
     id="defs3" /><sodipodi:namedview
     id="namedview2"
     pagecolor="#ffffff"
     bordercolor="#666666"
     borderopacity="1.0"
     inkscape:showpageshadow="2"
     inkscape:pageopacity="0.0"
     inkscape:pagecheckerboard="0"
     inkscape:deskcolor="#d1d1d1"
     inkscape:zoom="4"
     inkscape:cx="47"
     inkscape:cy="29.125"
     inkscape:window-width="1416"
     inkscape:window-height="480"
     inkscape:window-x="0"
     inkscape:window-y="25"
     inkscape:window-maximized="0"
     inkscape:current-layer="Ebene_1" /><g
     id="g3"
     transform="matrix(0.30865974,0,0,0.30865974,-0.0347711,-0.41911702)"><g
       id="g1"><defs
         id="defs1"><rect
           id="SVGID_1_"
           width="235.276"
           height="146.83501"
           x="0"
           y="0" /></defs><clipPath
         id="SVGID_2_"><use
           xlink:href="#SVGID_1_"
           overflow="visible"
           id="use1" /></clipPath><path
         clip-path="url(#SVGID_2_)"
         fill="#003da3"
         d="m 191.177,41.146 h -13.964 c -2.3,0 -3.45,1.15 -3.45,3.45 v 98.737 c 0,2.301 1.15,3.45 3.45,3.45 h 13.964 c 2.3,0 3.45,-1.149 3.45,-3.45 V 44.595 c 0,-2.3 -1.15,-3.449 -3.45,-3.449 M 55.386,143.332 80.851,44.924 c 0.546,-2.518 -0.55,-3.779 -3.286,-3.779 H 62.122 c -2.192,0 -3.507,1.15 -3.943,3.45 l -17.25,72.55 H 40.272 L 23.021,44.595 c -0.439,-2.3 -1.753,-3.45 -3.943,-3.45 H 3.635 c -2.957,0 -4.053,1.261 -3.285,3.779 l 25.464,98.408 c 0.437,2.301 1.807,3.45 4.107,3.45 h 21.522 c 2.079,0 3.394,-1.149 3.943,-3.45"
         id="path1" /></g><polygon
       fill="#9dd0f4"
       points="216.535,61.28 235.275,61.28 235.275,0 173.995,0 173.995,18.861 216.535,18.861 "
       id="polygon1" /><g
       id="g2"><defs
         id="defs2"><rect
           id="SVGID_3_"
           width="235.276"
           height="146.83501"
           x="0"
           y="0" /></defs><clipPath
         id="SVGID_4_"><use
           xlink:href="#SVGID_3_"
           overflow="visible"
           id="use2" /></clipPath><path
         clip-path="url(#SVGID_4_)"
         fill="#003da3"
         d="m 91.057,146.782 h 40.939 c 8.543,0 15.196,-3.758 19.96,-8.415 4.766,-4.654 7.863,-11.254 7.863,-19.797 V 69.357 c 0,-8.543 -3.098,-15.14 -7.863,-19.796 -4.764,-4.654 -11.417,-8.416 -19.96,-8.416 H 91.774 c -2.3,0 -3.45,1.15 -3.45,3.45 v 98.737 c 0,2.3 1.15,3.45 3.45,3.45 z m 17.774,-20.594 V 61.024 c 0,-1.204 0.601,-1.807 1.807,-1.807 h 18.625 c 3.504,0 5.995,0.739 7.475,2.218 1.479,1.478 2.218,3.971 2.218,7.475 v 49.391 c 0,3.508 -0.739,6.714 -2.218,8.192 -1.479,1.478 -3.971,2.218 -7.475,2.218 h -18.625 c -1.206,0 -1.807,-0.601 -1.807,-1.808 z"
         id="path2" /></g></g></svg>
